STARTFONT 2.1
FONT -FontForge-Minecraft-Regular-R-Normal--14-100-100-100-P-73-ISO10646-1
SIZE 10 100 100
FONTBOUNDINGBOX 9 11 0 -1
COMMENT "Generated by fontforge, http://fontforge.sourceforge.net"
COMMENT "Copyright \(c\) 2017 by Jacob Debono."
STARTPROPERTIES 39
FOUNDRY "FontForge"
FAMILY_NAME "Minecraft"
WEIGHT_NAME "Regular"
SLANT "R"
SETWIDTH_NAME "Normal"
ADD_STYLE_NAME ""
PIXEL_SIZE 14
POINT_SIZE 100
RESOLUTION_X 100
RESOLUTION_Y 100
SPACING "P"
AVERAGE_WIDTH 73
CHARSET_REGISTRY "ISO10646"
CHARSET_ENCODING "1"
FONTNAME_REGISTRY ""
CHARSET_COLLECTIONS "ISO10646-1"
FONT_NAME "Minecraft-Regular"
FACE_NAME "Minecraft Regular"
COPYRIGHT "Copyright \(c\) 2017 by Jacob Debono."
FONT_VERSION "001.000"
FONT_ASCENT 11
FONT_DESCENT 3
UNDERLINE_POSITION -1
UNDERLINE_THICKNESS 1
X_HEIGHT 6
CAP_HEIGHT 9
RAW_ASCENT 800
RAW_DESCENT 200
RELATIVE_WEIGHT 40
RELATIVE_SETWIDTH 50
SUPERSCRIPT_X 0
SUPERSCRIPT_Y 4
SUPERSCRIPT_SIZE 8
SUBSCRIPT_X 0
SUBSCRIPT_Y 1
SUBSCRIPT_SIZE 8
FIGURE_WIDTH 8
AVG_LOWERCASE_WIDTH 75
AVG_UPPERCASE_WIDTH 79
ENDPROPERTIES
CHARS 91
STARTCHAR exclam
ENCODING 33
SWIDTH 200 0
DWIDTH 3 0
BBX 1 10 1 0
BITMAP
80
80
80
80
80
80
80
00
80
80
ENDCHAR
STARTCHAR quotedbl
ENCODING 34
SWIDTH 500 0
DWIDTH 7 0
BBX 5 4 1 6
BITMAP
F8
F8
F8
A0
ENDCHAR
STARTCHAR numbersign
ENCODING 35
SWIDTH 600 0
DWIDTH 8 0
BBX 7 10 0 0
BITMAP
3C
3C
3C
FE
3C
FE
FE
3C
3C
3C
ENDCHAR
STARTCHAR dollar
ENCODING 36
SWIDTH 600 0
DWIDTH 8 0
BBX 6 10 1 0
BITMAP
20
FC
FC
80
F8
0C
0C
F8
20
20
ENDCHAR
STARTCHAR percent
ENCODING 37
SWIDTH 600 0
DWIDTH 8 0
BBX 6 10 1 0
BITMAP
8C
B8
B8
38
20
E0
E0
EC
8C
8C
ENDCHAR
STARTCHAR ampersand
ENCODING 38
SWIDTH 600 0
DWIDTH 8 0
BBX 6 10 1 0
BITMAP
20
F8
F8
20
EC
B8
B8
B8
EC
EC
ENDCHAR
STARTCHAR quotesingle
ENCODING 39
SWIDTH 300 0
DWIDTH 4 0
BBX 3 4 1 6
BITMAP
E0
E0
E0
80
ENDCHAR
STARTCHAR parenleft
ENCODING 40
SWIDTH 500 0
DWIDTH 7 0
BBX 5 10 1 0
BITMAP
38
E0
E0
80
80
80
80
E0
38
38
ENDCHAR
STARTCHAR parenright
ENCODING 41
SWIDTH 500 0
DWIDTH 7 0
BBX 6 10 0 0
BITMAP
E0
30
30
1C
1C
1C
1C
30
E0
E0
ENDCHAR
STARTCHAR asterisk
ENCODING 42
SWIDTH 500 0
DWIDTH 7 0
BBX 5 4 1 3
BITMAP
98
F0
98
98
ENDCHAR
STARTCHAR plus
ENCODING 43
SWIDTH 600 0
DWIDTH 8 0
BBX 7 7 0 2
BITMAP
10
10
10
FE
10
10
10
ENDCHAR
STARTCHAR comma
ENCODING 44
SWIDTH 200 0
DWIDTH 3 0
BBX 1 4 1 -1
BITMAP
80
80
80
80
ENDCHAR
STARTCHAR hyphen
ENCODING 45
SWIDTH 600 0
DWIDTH 8 0
BBX 7 1 0 5
BITMAP
FE
ENDCHAR
STARTCHAR period
ENCODING 46
SWIDTH 200 0
DWIDTH 3 0
BBX 1 3 1 0
BITMAP
80
80
80
ENDCHAR
STARTCHAR slash
ENCODING 47
SWIDTH 600 0
DWIDTH 8 0
BBX 6 10 1 0
BITMAP
0C
38
38
38
20
E0
E0
E0
80
80
ENDCHAR
STARTCHAR zero
ENCODING 48
SWIDTH 600 0
DWIDTH 8 0
BBX 6 10 1 0
BITMAP
F8
8C
8C
BC
AC
EC
EC
8C
F8
F8
ENDCHAR
STARTCHAR one
ENCODING 49
SWIDTH 600 0
DWIDTH 8 0
BBX 7 10 0 0
BITMAP
10
70
70
10
10
10
10
10
FE
FE
ENDCHAR
STARTCHAR two
ENCODING 50
SWIDTH 600 0
DWIDTH 8 0
BBX 6 10 1 0
BITMAP
F8
8C
8C
0C
38
E0
E0
8C
FC
FC
ENDCHAR
STARTCHAR three
ENCODING 51
SWIDTH 600 0
DWIDTH 8 0
BBX 6 10 1 0
BITMAP
F8
8C
8C
0C
38
0C
0C
8C
F8
F8
ENDCHAR
STARTCHAR four
ENCODING 52
SWIDTH 600 0
DWIDTH 8 0
BBX 6 10 1 0
BITMAP
3C
24
24
E4
84
FC
FC
04
04
04
ENDCHAR
STARTCHAR five
ENCODING 53
SWIDTH 600 0
DWIDTH 8 0
BBX 6 10 1 0
BITMAP
FC
80
80
F8
0C
0C
0C
8C
F8
F8
ENDCHAR
STARTCHAR six
ENCODING 54
SWIDTH 600 0
DWIDTH 8 0
BBX 6 10 1 0
BITMAP
38
E0
E0
80
F8
8C
8C
8C
F8
F8
ENDCHAR
STARTCHAR seven
ENCODING 55
SWIDTH 600 0
DWIDTH 8 0
BBX 6 10 1 0
BITMAP
FC
8C
8C
0C
38
20
20
20
20
20
ENDCHAR
STARTCHAR eight
ENCODING 56
SWIDTH 600 0
DWIDTH 8 0
BBX 6 10 1 0
BITMAP
F8
8C
8C
8C
F8
8C
8C
8C
F8
F8
ENDCHAR
STARTCHAR nine
ENCODING 57
SWIDTH 600 0
DWIDTH 8 0
BBX 6 10 1 0
BITMAP
F8
8C
8C
8C
FC
0C
0C
18
F0
F0
ENDCHAR
STARTCHAR colon
ENCODING 58
SWIDTH 200 0
DWIDTH 3 0
BBX 1 9 1 0
BITMAP
80
80
80
00
00
00
80
80
80
ENDCHAR
STARTCHAR semicolon
ENCODING 59
SWIDTH 200 0
DWIDTH 3 0
BBX 1 10 1 -1
BITMAP
80
80
80
00
00
00
80
80
80
80
ENDCHAR
STARTCHAR less
ENCODING 60
SWIDTH 500 0
DWIDTH 7 0
BBX 5 10 1 0
BITMAP
38
20
20
E0
80
E0
E0
20
38
38
ENDCHAR
STARTCHAR equal
ENCODING 61
SWIDTH 600 0
DWIDTH 8 0
BBX 7 5 0 2
BITMAP
FE
00
00
00
FE
ENDCHAR
STARTCHAR greater
ENCODING 62
SWIDTH 500 0
DWIDTH 7 0
BBX 5 10 1 0
BITMAP
80
E0
E0
20
38
20
20
E0
80
80
ENDCHAR
STARTCHAR question
ENCODING 63
SWIDTH 600 0
DWIDTH 8 0
BBX 6 10 1 0
BITMAP
F8
8C
8C
0C
38
20
20
00
20
20
ENDCHAR
STARTCHAR at
ENCODING 64
SWIDTH 700 0
DWIDTH 10 0
BBX 8 10 1 0
BITMAP
FF
81
81
B9
B9
BF
BF
80
FF
FF
ENDCHAR
STARTCHAR A
ENCODING 65
SWIDTH 600 0
DWIDTH 8 0
BBX 6 10 1 0
BITMAP
F8
8C
8C
FC
8C
8C
8C
8C
8C
8C
ENDCHAR
STARTCHAR B
ENCODING 66
SWIDTH 600 0
DWIDTH 8 0
BBX 6 10 1 0
BITMAP
FC
84
84
FC
84
84
84
84
FC
FC
ENDCHAR
STARTCHAR C
ENCODING 67
SWIDTH 600 0
DWIDTH 8 0
BBX 6 10 1 0
BITMAP
F8
8C
8C
80
80
80
80
8C
F8
F8
ENDCHAR
STARTCHAR D
ENCODING 68
SWIDTH 600 0
DWIDTH 8 0
BBX 6 10 1 0
BITMAP
FC
84
84
84
84
84
84
84
FC
FC
ENDCHAR
STARTCHAR E
ENCODING 69
SWIDTH 600 0
DWIDTH 8 0
BBX 7 10 1 0
BITMAP
FE
80
80
F0
80
80
80
80
FE
FE
ENDCHAR
STARTCHAR F
ENCODING 70
SWIDTH 600 0
DWIDTH 8 0
BBX 7 10 1 0
BITMAP
FE
80
80
F0
80
80
80
80
80
80
ENDCHAR
STARTCHAR G
ENCODING 71
SWIDTH 600 0
DWIDTH 8 0
BBX 6 10 1 0
BITMAP
FC
80
80
9C
8C
8C
8C
8C
F8
F8
ENDCHAR
STARTCHAR H
ENCODING 72
SWIDTH 600 0
DWIDTH 8 0
BBX 6 10 1 0
BITMAP
84
84
84
FC
84
84
84
84
84
84
ENDCHAR
STARTCHAR I
ENCODING 73
SWIDTH 400 0
DWIDTH 6 0
BBX 4 10 1 0
BITMAP
F0
60
60
60
60
60
60
60
F0
F0
ENDCHAR
STARTCHAR J
ENCODING 74
SWIDTH 600 0
DWIDTH 8 0
BBX 6 10 1 0
BITMAP
0C
0C
0C
0C
0C
0C
0C
8C
F8
F8
ENDCHAR
STARTCHAR K
ENCODING 75
SWIDTH 600 0
DWIDTH 8 0
BBX 6 10 1 0
BITMAP
8C
98
98
F0
98
8C
8C
8C
8C
8C
ENDCHAR
STARTCHAR L
ENCODING 76
SWIDTH 600 0
DWIDTH 8 0
BBX 7 10 1 0
BITMAP
80
80
80
80
80
80
80
80
FE
FE
ENDCHAR
STARTCHAR M
ENCODING 77
SWIDTH 600 0
DWIDTH 8 0
BBX 6 10 1 0
BITMAP
84
FC
FC
A4
84
84
84
84
84
84
ENDCHAR
STARTCHAR N
ENCODING 78
SWIDTH 600 0
DWIDTH 8 0
BBX 6 10 1 0
BITMAP
84
E4
E4
A4
BC
84
84
84
84
84
ENDCHAR
STARTCHAR O
ENCODING 79
SWIDTH 600 0
DWIDTH 8 0
BBX 6 10 1 0
BITMAP
F8
8C
8C
8C
8C
8C
8C
8C
F8
F8
ENDCHAR
STARTCHAR P
ENCODING 80
SWIDTH 600 0
DWIDTH 8 0
BBX 6 10 1 0
BITMAP
FC
84
84
FC
80
80
80
80
80
80
ENDCHAR
STARTCHAR Q
ENCODING 81
SWIDTH 600 0
DWIDTH 8 0
BBX 6 10 1 0
BITMAP
F8
8C
8C
8C
8C
8C
8C
98
FC
FC
ENDCHAR
STARTCHAR R
ENCODING 82
SWIDTH 600 0
DWIDTH 8 0
BBX 6 10 1 0
BITMAP
FC
84
84
FC
84
84
84
84
84
84
ENDCHAR
STARTCHAR S
ENCODING 83
SWIDTH 600 0
DWIDTH 8 0
BBX 6 10 1 0
BITMAP
FC
80
80
F8
0C
0C
0C
8C
F8
F8
ENDCHAR
STARTCHAR T
ENCODING 84
SWIDTH 600 0
DWIDTH 8 0
BBX 7 10 0 0
BITMAP
FE
10
10
10
10
10
10
10
10
10
ENDCHAR
STARTCHAR U
ENCODING 85
SWIDTH 600 0
DWIDTH 8 0
BBX 6 10 1 0
BITMAP
8C
8C
8C
8C
8C
8C
8C
8C
F8
F8
ENDCHAR
STARTCHAR V
ENCODING 86
SWIDTH 600 0
DWIDTH 8 0
BBX 6 10 1 0
BITMAP
8C
8C
8C
8C
8C
F8
F8
F8
20
20
ENDCHAR
STARTCHAR W
ENCODING 87
SWIDTH 600 0
DWIDTH 8 0
BBX 6 10 1 0
BITMAP
84
84
84
84
84
A4
A4
FC
84
84
ENDCHAR
STARTCHAR X
ENCODING 88
SWIDTH 600 0
DWIDTH 8 0
BBX 6 10 1 0
BITMAP
8C
F8
F8
20
F8
8C
8C
8C
8C
8C
ENDCHAR
STARTCHAR Y
ENCODING 89
SWIDTH 600 0
DWIDTH 8 0
BBX 6 10 1 0
BITMAP
8C
F8
F8
20
20
20
20
20
20
20
ENDCHAR
STARTCHAR Z
ENCODING 90
SWIDTH 600 0
DWIDTH 8 0
BBX 6 10 1 0
BITMAP
FC
0C
0C
38
20
E0
E0
80
FC
FC
ENDCHAR
STARTCHAR bracketleft
ENCODING 91
SWIDTH 400 0
DWIDTH 6 0
BBX 4 10 1 0
BITMAP
F0
80
80
80
80
80
80
80
F0
F0
ENDCHAR
STARTCHAR backslash
ENCODING 92
SWIDTH 600 0
DWIDTH 8 0
BBX 6 10 1 0
BITMAP
80
E0
E0
E0
20
38
38
38
0C
0C
ENDCHAR
STARTCHAR bracketright
ENCODING 93
SWIDTH 400 0
DWIDTH 6 0
BBX 4 10 0 0
BITMAP
F0
10
10
10
10
10
10
10
F0
F0
ENDCHAR
STARTCHAR asciicircum
ENCODING 94
SWIDTH 600 0
DWIDTH 8 0
BBX 6 4 1 6
BITMAP
20
F8
F8
8C
ENDCHAR
STARTCHAR underscore
ENCODING 95
SWIDTH 600 0
DWIDTH 8 0
BBX 7 2 0 -1
BITMAP
FE
FE
ENDCHAR
STARTCHAR a
ENCODING 97
SWIDTH 600 0
DWIDTH 8 0
BBX 6 7 1 0
BITMAP
F8
0C
FC
FC
8C
FC
FC
ENDCHAR
STARTCHAR b
ENCODING 98
SWIDTH 600 0
DWIDTH 8 0
BBX 6 10 1 0
BITMAP
80
80
80
B8
EC
8C
8C
8C
F8
F8
ENDCHAR
STARTCHAR c
ENCODING 99
SWIDTH 600 0
DWIDTH 8 0
BBX 6 7 1 0
BITMAP
F8
8C
80
80
8C
F8
F8
ENDCHAR
STARTCHAR d
ENCODING 100
SWIDTH 600 0
DWIDTH 8 0
BBX 6 10 1 0
BITMAP
04
04
04
F4
9C
84
84
84
FC
FC
ENDCHAR
STARTCHAR e
ENCODING 101
SWIDTH 600 0
DWIDTH 8 0
BBX 6 7 1 0
BITMAP
F8
8C
FC
FC
80
FC
FC
ENDCHAR
STARTCHAR f
ENCODING 102
SWIDTH 500 0
DWIDTH 7 0
BBX 6 10 0 0
BITMAP
1C
30
30
FC
30
30
30
30
30
30
ENDCHAR
STARTCHAR g
ENCODING 103
SWIDTH 600 0
DWIDTH 8 0
BBX 6 8 1 -1
BITMAP
FC
84
84
84
FC
04
FC
FC
ENDCHAR
STARTCHAR h
ENCODING 104
SWIDTH 600 0
DWIDTH 8 0
BBX 6 10 1 0
BITMAP
80
80
80
B8
EC
8C
8C
8C
8C
8C
ENDCHAR
STARTCHAR i
ENCODING 105
SWIDTH 200 0
DWIDTH 3 0
BBX 1 10 1 0
BITMAP
80
00
00
80
80
80
80
80
80
80
ENDCHAR
STARTCHAR j
ENCODING 106
SWIDTH 600 0
DWIDTH 8 0
BBX 6 11 1 -1
BITMAP
0C
00
00
0C
0C
0C
0C
0C
8C
FC
F8
ENDCHAR
STARTCHAR k
ENCODING 107
SWIDTH 500 0
DWIDTH 7 0
BBX 5 10 1 0
BITMAP
80
80
80
B8
A0
E0
E0
A0
B8
B8
ENDCHAR
STARTCHAR l
ENCODING 108
SWIDTH 300 0
DWIDTH 4 0
BBX 3 10 1 0
BITMAP
80
80
80
80
80
80
80
80
E0
E0
ENDCHAR
STARTCHAR m
ENCODING 109
SWIDTH 600 0
DWIDTH 8 0
BBX 6 7 1 0
BITMAP
F8
AC
AC
AC
8C
8C
8C
ENDCHAR
STARTCHAR n
ENCODING 110
SWIDTH 600 0
DWIDTH 8 0
BBX 6 7 1 0
BITMAP
FC
84
84
84
84
84
84
ENDCHAR
STARTCHAR o
ENCODING 111
SWIDTH 600 0
DWIDTH 8 0
BBX 6 7 1 0
BITMAP
F8
8C
8C
8C
8C
F8
F8
ENDCHAR
STARTCHAR p
ENCODING 112
SWIDTH 600 0
DWIDTH 8 0
BBX 6 8 1 -1
BITMAP
B8
EC
8C
8C
F8
80
80
80
ENDCHAR
STARTCHAR q
ENCODING 113
SWIDTH 600 0
DWIDTH 8 0
BBX 6 8 1 -1
BITMAP
F4
9C
84
84
FC
04
04
04
ENDCHAR
STARTCHAR r
ENCODING 114
SWIDTH 600 0
DWIDTH 8 0
BBX 6 7 1 0
BITMAP
B8
EC
80
80
80
80
80
ENDCHAR
STARTCHAR s
ENCODING 115
SWIDTH 600 0
DWIDTH 8 0
BBX 6 7 1 0
BITMAP
FC
80
F8
F8
0C
F8
F8
ENDCHAR
STARTCHAR t
ENCODING 116
SWIDTH 400 0
DWIDTH 6 0
BBX 4 10 0 0
BITMAP
30
30
30
F0
30
30
30
30
10
10
ENDCHAR
STARTCHAR u
ENCODING 117
SWIDTH 600 0
DWIDTH 8 0
BBX 6 7 1 0
BITMAP
84
84
84
84
84
FC
FC
ENDCHAR
STARTCHAR v
ENCODING 118
SWIDTH 600 0
DWIDTH 8 0
BBX 6 7 1 0
BITMAP
8C
8C
8C
8C
F8
20
20
ENDCHAR
STARTCHAR w
ENCODING 119
SWIDTH 600 0
DWIDTH 8 0
BBX 6 7 1 0
BITMAP
84
84
A4
A4
A4
FC
FC
ENDCHAR
STARTCHAR x
ENCODING 120
SWIDTH 600 0
DWIDTH 8 0
BBX 6 7 1 0
BITMAP
8C
F8
20
20
F8
8C
8C
ENDCHAR
STARTCHAR y
ENCODING 121
SWIDTH 600 0
DWIDTH 8 0
BBX 6 8 1 -1
BITMAP
84
84
84
84
FC
04
FC
FC
ENDCHAR
STARTCHAR z
ENCODING 122
SWIDTH 600 0
DWIDTH 8 0
BBX 7 7 0 0
BITMAP
FE
1C
10
10
30
FE
FE
ENDCHAR
STARTCHAR braceleft
ENCODING 123
SWIDTH 500 0
DWIDTH 7 0
BBX 5 10 1 0
BITMAP
38
E0
E0
E0
80
E0
E0
E0
38
38
ENDCHAR
STARTCHAR bar
ENCODING 124
SWIDTH 200 0
DWIDTH 3 0
BBX 1 10 1 0
BITMAP
80
80
80
80
00
80
80
80
80
80
ENDCHAR
ENDFONT
